<?xml version="1.0" standalone="no"?>
<!DOCTYPE svg PUBLIC "-//W3C//DTD SVG 20010904//EN"
 "http://www.w3.org/TR/2001/REC-SVG-20010904/DTD/svg10.dtd">
<svg version="1.0" xmlns="http://www.w3.org/2000/svg"
 width="700.000000pt" height="700.000000pt" viewBox="0 0 700.000000 700.000000"
 preserveAspectRatio="xMidYMid meet">
<metadata>
Created by potrace 1.11, written by Peter Selinger 2001-2013
</metadata>
<g transform="translate(0.000000,700.000000) scale(0.100000,-0.100000)"
fill="#000000" stroke="none">
<path d="M490 6993 c-208 -35 -383 -182 -458 -387 l-27 -71 -3 -642 -3 -643
291 0 c225 0 290 3 291 13 1 6 2 269 3 582 l1 570 570 2 c314 1 576 2 583 2 9
1 12 66 12 291 l0 290 -617 -1 c-340 -1 -629 -4 -643 -6z"/>
<path d="M5250 6711 l0 -291 23 -1 c12 0 274 -1 582 -2 l560 -2 0 -582 0 -583
293 0 292 0 0 613 c0 681 -1 690 -65 818 -46 90 -163 210 -245 251 -134 66
-92 63 -797 66 l-643 3 0 -290z"/>
<path d="M1177 5828 c-9 -5 -12 -214 -10 -865 0 -472 2 -863 2 -869 1 -7 265
-10 874 -10 l872 1 0 873 c1 602 -2 872 -10 873 -57 5 -1719 2 -1728 -3z
m1155 -590 c3 -11 2 -474 -1 -548 l-1 -25 -288 2 -287 1 -3 291 -2 291 289 0
c222 0 290 -3 293 -12z"/>
<path d="M4091 5830 c-4 -3 -7 -396 -7 -875 l1 -870 873 0 c780 -1 872 1 873
15 4 61 3 1723 -1 1728 -6 8 -1728 10 -1739 2z m1159 -870 l0 -290 -22 -1
c-30 0 -415 0 -498 0 l-65 1 1 278 c1 152 2 283 3 290 1 9 66 12 291 12 l290
0 0 -290z"/>
<path d="M3210 4667 l0 -583 290 0 290 0 0 583 0 583 -290 0 -290 0 0 -583z"/>
<path d="M2920 3790 l-295 -5 0 -287 0 -288 292 0 293 0 0 -293 0 -292 290 0
290 0 0 582 0 582 -287 3 c-159 2 -421 1 -583 -2z"/>
<path d="M1169 3788 c0 -2 -2 -132 -2 -291 l-2 -287 293 0 292 0 0 290 0 290
-290 0 c-159 0 -290 -1 -291 -2z"/>
<path d="M4084 3500 l0 -290 291 0 292 0 -1 -286 c-1 -264 0 -287 16 -293 10
-3 142 -6 293 -6 l275 1 0 -438 0 -438 -289 0 c-222 0 -290 3 -293 13 -2 6 -3
203 -3 437 l1 426 -291 0 -291 0 1 -131 c0 -71 -1 -137 -3 -146 -3 -14 -49
-16 -435 -15 l-432 0 -3 -585 -2 -584 287 1 288 1 3 291 2 292 439 0 438 0 1
-267 c0 -148 1 -279 1 -293 l1 -25 268 2 c147 1 277 2 290 2 l22 1 0 290 0
290 289 0 c222 0 290 3 293 13 3 10 2 753 -1 837 l-1 26 -287 -1 -288 0 -3
292 -2 293 292 2 292 3 1 275 c0 151 -1 281 -3 288 -3 9 -71 12 -293 12 l-289
0 0 -290 0 -290 -292 2 -292 3 0 288 1 287 -292 0 -291 0 0 -290z"/>
<path d="M1175 2913 c-7 -2 -9 -296 -8 -861 0 -471 2 -864 2 -872 1 -13 100
-15 838 -13 461 1 854 3 874 3 l35 0 0 873 -1 872 -865 1 c-476 0 -869 -1
-875 -3z m1153 -590 c5 -9 8 -529 3 -565 -1 -5 -131 -8 -291 -8 l-290 0 0 289
c0 263 2 290 17 293 46 9 555 0 561 -9z"/>
<path d="M3 1108 c3 -706 0 -665 67 -799 47 -93 156 -198 251 -243 41 -19 90
-40 109 -47 27 -11 178 -14 678 -17 l642 -3 0 289 c0 223 -3 291 -12 294 -7 2
-270 3 -584 2 l-570 -1 0 581 0 581 -293 3 -292 2 4 -642z"/>
<path d="M6419 1743 c0 -5 -2 -262 -3 -573 -2 -311 -4 -570 -4 -576 -2 -8
-171 -11 -579 -11 l-578 0 -3 -292 -2 -292 642 3 c592 3 647 5 693 22 55 19
117 48 125 57 3 3 22 15 42 27 54 33 138 129 176 199 69 131 66 92 69 801 l4
642 -291 0 c-159 0 -290 -3 -291 -7z"/>
</g>
</svg>
